<svg width="160" height="48" viewBox="0 0 160 48" fill="none" xmlns="http://www.w3.org/2000/svg">
<path d="M49.6867 15.025C50.4503 14.9743 51.1271 14.9784 51.841 15.2848C53.4126 15.9592 54.2538 17.1577 54.3654 18.8414C53.5477 18.8821 52.6144 18.8638 51.7853 18.8629C51.6941 18.411 51.6364 18.0623 51.3381 17.69C50.9114 17.1521 50.212 16.9363 49.5793 17.232C48.6352 17.6675 48.4029 18.8399 48.8459 19.7213C49.1272 20.2811 49.5533 20.7705 49.9387 21.2652C50.6199 22.1334 51.3092 22.9957 52.0051 23.8522C52.7797 23.8929 53.7205 23.87 54.506 23.8697L58.7775 23.8668C58.7805 24.5741 58.7799 25.2816 58.7756 25.9889C57.1128 25.9499 55.4416 25.9985 53.7756 25.9625C54.7742 27.2835 56.0635 28.7841 57.1379 30.067C57.6856 30.7225 58.2943 31.4476 58.8088 32.1236C57.7672 32.1515 56.5046 32.143 55.467 32.1207C55.1233 31.6305 54.6944 31.1564 54.3264 30.6705C52.3136 32.1668 50.6945 32.9644 48.0676 32.4703C45.1855 31.9283 43.5702 29.647 44.0998 26.7359C44.4444 24.8426 46.1487 23.6608 47.6613 22.6783C46.9709 21.6611 46.2977 20.8248 46.1096 19.5611C45.7582 17.2003 47.1637 15.3877 49.5275 15.0387C49.5805 15.0333 49.6336 15.0286 49.6867 15.025ZM49.0764 24.4264C48.597 24.6802 48.1403 24.9383 47.7424 25.3121C45.2831 27.6227 47.1178 30.6952 50.3439 30.1891C51.3809 29.9958 52.0017 29.6413 52.7844 28.9156C52.4905 28.4958 49.2656 24.4767 49.0764 24.4264Z" fill="#A5A5A5"/>
<path d="M71.6058 19.4643C73.053 19.4901 74.5108 19.4585 75.9603 19.4692C76.7798 19.492 77.6496 19.4066 78.4574 19.5551C79.0456 19.6633 79.6345 20.294 79.7064 20.8833C79.8259 21.8625 79.78 22.8993 79.7797 23.8872L79.7806 29.7456L81.14 29.7466C81.1212 30.5002 81.1146 31.3784 81.141 32.1284C80.4272 32.1348 79.704 32.1607 78.9916 32.1284C77.9462 32.0809 77.5164 31.3581 77.1547 30.5044C76.6095 31.4606 75.9168 31.9411 74.8881 32.2758C74.4728 32.3719 74.1745 32.418 73.7445 32.4292C70.0998 32.5237 67.9705 28.0751 70.6127 25.4204C71.9936 24.033 73.6215 23.9962 75.4652 24.0444C77.2239 24.0904 77.1873 23.1751 77.1722 21.8051C75.3309 21.783 73.4387 21.8075 71.5931 21.81C71.5863 21.1725 71.5494 20.0525 71.6058 19.4643ZM77.1761 25.8413C76.8229 25.9349 76.3616 26.0794 76.0072 26.1186C74.8315 26.2486 73.0267 25.8677 72.3099 27.0952C71.8409 27.8987 72.0577 28.8227 72.723 29.4311C74.3347 30.6263 77.137 29.7774 77.2054 27.5815C77.2116 27.3836 77.2327 25.9243 77.1761 25.8413Z" fill="#A5A5A5"/>
<path d="M110.756 19.2393C112.624 19.0044 114.981 19.6355 116.113 21.2163C116.486 21.7366 116.614 22.2749 116.698 22.8953C115.881 22.9339 114.866 22.9034 114.021 22.9151C113.718 21.961 113.069 21.4137 112.073 21.283C110.765 21.1114 109.295 21.3491 108.871 22.7745C109.299 24.0288 110.767 24.1822 111.884 24.4534C113.393 24.8196 114.844 24.9267 116.015 26.0891C117.33 27.3954 117.334 29.6582 115.993 30.9511C114.767 32.133 113.087 32.4349 111.445 32.424C108.849 32.3051 106.278 30.9861 105.967 28.1543C106.842 28.1431 107.736 28.1516 108.613 28.1505C108.728 28.9848 109.057 29.4342 109.81 29.8405C110.677 30.3437 111.325 30.2737 112.225 30.2858C113.651 30.3048 115.456 28.6769 113.67 27.6872C112.626 27.1088 110.458 26.8866 109.206 26.4557C107.494 25.9799 106.01 24.5321 106.321 22.6065C106.674 20.4227 108.801 19.4672 110.756 19.2393Z" fill="#A5A5A5"/>
<path d="M63.8154 15.0341C64.5169 14.9849 65.3412 15.0032 66.0526 15.0039L69.4771 15.0085C69.4775 15.6961 69.4721 16.3838 69.461 17.0714C68.0123 17.0604 66.5635 17.0612 65.1148 17.0738L65.1112 19.4761C66.5615 19.4611 68.0131 19.4849 69.4659 19.4616L69.4684 21.5773L65.1132 21.5834L65.1098 28.2969L65.11 32.0926C64.2333 32.1031 63.3565 32.1028 62.4797 32.0919L62.4832 21.5826C61.2934 21.5541 60.0149 21.5762 58.8185 21.5754C58.8112 20.8703 58.8089 20.1652 58.8117 19.4601C60.0298 19.4748 61.248 19.4778 62.4662 19.469C62.526 17.887 61.956 15.5815 63.8154 15.0341Z" fill="#A5A5A5"/>
<path d="M100.068 15.0053L100.112 15.0056C100.162 15.0703 100.144 19.0535 100.148 19.479C101.622 19.4527 103.101 19.4914 104.581 19.4562C104.59 20.163 104.587 20.8698 104.572 21.5764L100.181 21.5827C100.166 24.3968 100.167 27.2109 100.186 30.025L104.574 30.0264C104.589 30.727 104.586 31.4279 104.566 32.1283L103.787 32.1335L101.064 32.1348C99.8862 32.1356 97.9141 32.3463 97.6385 30.6817C97.4815 29.734 97.5559 28.4538 97.5563 27.4702V21.5782L94.793 21.5768L94.7996 19.4632C95.7185 19.4747 96.637 19.476 97.5554 19.4669C97.5659 17.9821 97.5615 16.4973 97.5432 15.0125C98.3654 14.9923 99.241 15.0055 100.068 15.0053Z" fill="#A5A5A5"/>
<path d="M87.52 19.2381C90.4911 18.829 93.0107 20.8258 93.9349 23.5514C93.093 23.5803 92.056 23.5665 91.2088 23.5507C90.9927 22.8993 90.436 22.2767 89.8993 21.874C88.3921 20.7437 86.6882 21.2823 85.6293 22.712C84.1794 24.6703 84.4134 28.2244 86.4026 29.7022C87.0525 30.1822 87.866 30.3851 88.6651 30.2666C89.5936 30.1227 90.324 29.4689 90.8576 28.7335C91.0242 28.4445 91.1887 28.1215 91.3466 27.8253C92.0923 27.7855 93.2294 27.8286 94.0044 27.8334C93.1533 30.3259 91.5053 32.0409 88.7976 32.3851C87.2646 32.58 85.9306 32.2012 84.7139 31.2559C83.2758 30.1597 82.3399 28.5308 82.1168 26.7366C81.8732 24.8617 82.3845 22.9666 83.5382 21.4687C84.5538 20.1733 85.8913 19.4334 87.52 19.2381Z" fill="#A5A5A5"/>
</svg>
