<svg width="160" height="48" viewBox="0 0 160 48" fill="none" xmlns="http://www.w3.org/2000/svg">
<path fill-rule="evenodd" clip-rule="evenodd" d="M9.80371 25.4756C10.4658 27.9322 12.7084 29.7398 15.374 29.7402V32.498C11.2077 32.4384 7.75532 29.4362 7 25.4756H9.80371ZM20.8936 25.7275H10.1055V22.4658H20.8936V25.7275ZM15.5 15.1895C19.7223 15.1896 23.2366 18.2139 24 22.2139H20.8721C20.1287 19.8865 17.9488 18.2004 15.375 18.2002C12.8009 18.2002 10.6204 19.8863 9.87695 22.2139H7C7.76322 18.2139 11.2777 15.1896 15.5 15.1895Z" fill="#A5A5A5"/>
<path d="M28.686 30.5V16.6768H37.9819V18.4858H30.7456V22.5586H37.4438V24.3491H30.7456V28.6909H37.9819V30.5H28.686ZM41.6743 24.8594V30.5H39.7168V20.7031H41.6372V22.1782C42.3052 21.0649 43.3071 20.5083 44.5967 20.5083C46.6099 20.5083 48.1406 21.835 48.1406 24.3955V30.5H46.1831V24.6367C46.1831 23.0688 45.3945 22.2617 44.04 22.2617C42.7041 22.2617 41.6743 23.041 41.6743 24.8594ZM55.0708 20.7031V22.3174H53.0854V27.9116C53.0854 28.6353 53.3359 28.8857 54.1152 28.8857H55.0708V30.5H53.8369C52 30.5 51.1187 29.7393 51.1187 28.1621V22.3174H49.3931V20.7031H51.1187V18.0312H53.0854V20.7031H55.0708ZM60.6372 30.7227C57.7334 30.7227 55.9707 28.5796 55.9707 25.6201C55.9707 22.6328 57.8633 20.4805 60.5352 20.4805C63.3091 20.4805 65.1089 22.5771 65.1089 25.6016V26.1304H57.9004C57.9653 27.8931 58.9487 29.0898 60.665 29.0898C61.9453 29.0898 62.7988 28.4497 63.0771 27.522H64.9604C64.5986 29.4146 62.8545 30.7227 60.6372 30.7227ZM57.9189 24.646H63.1978C63.04 23.0874 62.0381 22.1133 60.5537 22.1133C59.0786 22.1133 58.0859 23.0874 57.9189 24.646ZM68.7642 16.6768V30.5H66.8066V16.6768H68.7642ZM72.939 16.6768V30.5H70.9814V16.6768H72.939ZM75.1562 30.5V20.7031H77.1138V30.5H75.1562ZM76.1304 19.0146C75.4346 19.0146 74.8965 18.4858 74.8965 17.8179C74.8965 17.1406 75.4346 16.6118 76.1304 16.6118C76.8262 16.6118 77.3735 17.1406 77.3735 17.8179C77.3735 18.4858 76.8262 19.0146 76.1304 19.0146ZM83.6079 34.5078C81.2051 34.5078 79.5908 33.3945 79.3311 31.4741H81.2886C81.5391 32.4204 82.4204 32.9121 83.6079 32.9121C85.1851 32.9121 86.1313 32.0308 86.1313 30.4443V28.96H86.1221C85.4448 30.1011 84.3872 30.6299 83.0977 30.6299C80.5464 30.6299 78.8486 28.561 78.8486 25.5737C78.8486 22.5771 80.5557 20.5083 83.0884 20.5083C84.3594 20.5083 85.4727 21.0278 86.1313 22.1968H86.1406V20.7031H88.0703V30.3701C88.0703 33.3389 86.0757 34.5078 83.6079 34.5078ZM83.4966 28.9507C85.1665 28.9507 86.2427 27.6147 86.2427 25.5645C86.2427 23.5142 85.1665 22.1782 83.4966 22.1782C81.9194 22.1782 80.834 23.3657 80.834 25.5645C80.834 27.7632 81.9194 28.9507 83.4966 28.9507ZM94.4624 30.7227C91.5586 30.7227 89.7959 28.5796 89.7959 25.6201C89.7959 22.6328 91.6885 20.4805 94.3604 20.4805C97.1343 20.4805 98.9341 22.5771 98.9341 25.6016V26.1304H91.7256C91.7905 27.8931 92.7739 29.0898 94.4902 29.0898C95.7705 29.0898 96.624 28.4497 96.9023 27.522H98.7856C98.4238 29.4146 96.6797 30.7227 94.4624 30.7227ZM91.7441 24.646H97.0229C96.8652 23.0874 95.8633 22.1133 94.3789 22.1133C92.9038 22.1133 91.9111 23.0874 91.7441 24.646ZM102.589 24.8594V30.5H100.632V20.7031H102.552V22.1782C103.22 21.0649 104.222 20.5083 105.512 20.5083C107.525 20.5083 109.056 21.835 109.056 24.3955V30.5H107.098V24.6367C107.098 23.0688 106.31 22.2617 104.955 22.2617C103.619 22.2617 102.589 23.041 102.589 24.8594ZM115.457 30.7227C112.655 30.7227 110.781 28.6167 110.781 25.6201C110.781 22.605 112.665 20.4805 115.457 20.4805C117.795 20.4805 119.502 21.9741 119.743 24.0522H117.795C117.591 22.9482 116.793 22.1689 115.466 22.1689C113.778 22.1689 112.767 23.5234 112.767 25.6201C112.767 27.6982 113.769 29.0342 115.466 29.0342C116.812 29.0342 117.507 28.2827 117.767 27.1416H119.743C119.521 29.1826 117.795 30.7227 115.457 30.7227ZM125.597 30.7227C122.693 30.7227 120.931 28.5796 120.931 25.6201C120.931 22.6328 122.823 20.4805 125.495 20.4805C128.269 20.4805 130.069 22.5771 130.069 25.6016V26.1304H122.86C122.925 27.8931 123.909 29.0898 125.625 29.0898C126.905 29.0898 127.759 28.4497 128.037 27.522H129.92C129.559 29.4146 127.814 30.7227 125.597 30.7227ZM122.879 24.646H128.158C128 23.0874 126.998 22.1133 125.514 22.1133C124.039 22.1133 123.046 23.0874 122.879 24.646ZM135.338 30.5L140.357 16.6768H142.844L147.826 30.5H145.59L144.365 26.9097H138.79L137.528 30.5H135.338ZM139.411 25.1562H143.762L142.927 22.707C142.547 21.5659 142.157 20.3506 141.61 18.5601C141.053 20.3506 140.654 21.5659 140.274 22.707L139.411 25.1562ZM151.314 16.6768V30.5H149.254V16.6768H151.314Z" fill="#A5A5A5"/>
</svg>
