<svg width="160" height="48" viewBox="0 0 160 48" fill="none" xmlns="http://www.w3.org/2000/svg">
<path d="M70.9546 18.2819C73.0606 18.1166 75.8931 18.593 77.6885 19.7449C79.2971 20.7769 80.1589 21.8417 80.6042 23.7094C79.7582 23.7873 78.1821 23.7431 77.3075 23.7384C77.0868 23.3629 76.7843 22.8446 76.5021 22.533C75.4332 21.3528 73.6379 20.9271 72.104 20.839C70.2841 20.7345 68.0709 21.1687 66.6876 22.4117C65.6354 23.3478 65.1635 24.3954 65.061 25.7846C64.8022 29.3291 67.6164 31.291 70.8562 31.4647C73.5069 31.6067 77.4227 31.1436 77.6249 27.7753C75.6868 27.7643 73.7485 27.7653 71.8104 27.7785L71.7922 27.1178C71.7899 26.5366 71.7922 25.9554 71.7992 25.3742C74.7812 25.3619 77.7633 25.3647 80.7451 25.3824C80.7815 26.507 80.7521 27.7575 80.7554 28.8952C80.7712 30.5802 80.7668 32.2652 80.7424 33.9501C79.9044 33.974 78.9382 33.948 78.092 33.9426C78.0258 33.3538 77.9745 32.7636 77.9378 32.1723C77.433 32.4316 76.8584 32.8568 76.3843 33.0967C75.3553 33.6173 73.6051 33.9997 72.4513 34.0801C69.4977 34.2685 66.5743 33.6611 64.2296 31.7889C61.1826 29.356 60.7503 24.4098 63.2725 21.454C65.245 19.1424 68.0237 18.5109 70.9546 18.2819Z" fill="#A5A5A5"/>
<path d="M112.5 18.3692C113.552 18.4786 115.453 18.4309 116.576 18.4297C116.822 19.0968 117.197 19.7393 117.515 20.378L119.071 23.5254L124.243 33.9121C123.523 34.0114 121.308 33.9552 120.544 33.916C119.93 32.735 119.435 31.5761 118.791 30.3975C118.09 30.3686 117.321 30.3805 116.614 30.378C114.438 30.3934 112.237 30.3495 110.066 30.3848C109.47 31.5092 108.895 32.7496 108.345 33.8994C107.166 33.9478 105.986 33.9627 104.806 33.9424C105.158 32.8507 106.256 30.9867 106.774 29.8936C107.714 27.9081 108.735 25.9045 109.734 23.9453C110.65 22.1464 111.555 20.1395 112.5 18.3692ZM114.415 21.3389C114.08 21.8436 113.32 23.5126 113.023 24.1573C112.509 25.2673 111.691 26.7586 111.255 27.8594C112.296 27.8322 113.38 27.8515 114.424 27.8575L117.528 27.8692C117.303 27.2032 114.572 21.4622 114.415 21.3389Z" fill="#A5A5A5"/>
<path d="M92.9173 18.4247C93.2795 19.352 93.8552 20.432 94.306 21.3319L96.221 25.1766L99.7152 32.1571C100.012 32.7464 100.27 33.3576 100.571 33.9305C99.3369 33.9289 98.0977 33.9613 96.8656 33.9139C96.367 32.9135 95.581 31.3853 95.1732 30.3856C94.3956 30.3953 93.594 30.3803 92.8148 30.3759C90.8193 30.3816 88.2931 30.3023 86.3558 30.4003C85.8577 31.3181 85.1223 33.1979 84.6253 33.9296C83.4705 33.9818 82.2098 33.9526 81.056 33.9247C81.2615 33.576 81.5655 32.8931 81.7689 32.493C82.3691 31.3315 82.9561 30.1632 83.5296 28.9882L86.224 23.6425C87.0651 21.9408 87.927 20.0945 88.804 18.4188L92.9173 18.4247ZM90.7015 21.3905C90.0615 22.4662 89.3755 24.0728 88.804 25.2147C88.5104 25.8023 87.7916 27.3124 87.6214 27.8798L90.8128 27.8583C91.8378 27.8455 92.8626 27.8546 93.8871 27.8856C93.6055 27.2064 90.9679 21.5597 90.7015 21.3905Z" fill="#A5A5A5"/>
<path d="M50.5924 30.3164C50.3456 28.1431 50.9359 24.9201 52.025 23.0195C52.7144 21.8166 53.3292 21.2224 54.658 20.8568C54.8101 20.9194 54.9578 20.992 55.1002 21.0742C55.9468 21.5541 56.2104 22.0362 56.4631 22.9561C56.6595 23.8463 56.8096 24.6613 56.879 25.5417C57.3618 31.6655 52.9054 37.8163 46.8213 39.0239C45.8813 39.2105 44.3505 39.0417 44.2437 37.9336C43.9384 34.7655 48.2088 31.3631 50.5924 30.3164Z" fill="#A5A5A5"/>
<path d="M50.5924 30.3164C50.3456 28.1431 50.9359 24.9201 52.025 23.0195C52.7144 21.8166 53.3292 21.2224 54.658 20.8568C54.8101 20.9194 54.9578 20.992 55.1002 21.0742C55.9468 21.5541 56.2104 22.0362 56.4631 22.9561C56.3746 22.8896 56.2806 22.8106 56.1784 22.7714C56.0958 22.7986 55.9959 22.8141 55.9792 22.9046C55.8674 23.5775 55.9733 24.196 55.8795 24.8914C55.6364 26.6933 54.8745 27.5209 53.5789 28.618C52.419 29.6003 51.9579 29.7116 50.5924 30.3164Z" fill="#898989"/>
<path d="M39.5645 38.8367C36.9659 37.7742 35.664 37.1789 33.7286 34.9983C31.3675 32.2794 30.2665 29.1158 30.4759 25.5057C30.6056 23.2697 31.7616 18.7567 34.6113 22.0648C36.1692 23.8733 36.9666 27.6611 36.7039 30.0619C36.763 30.482 36.8914 30.3752 37.2667 30.5867C37.7361 30.8501 38.1964 31.1296 38.6467 31.4246C40.4203 32.6055 42.6242 34.7942 43.1378 36.9786C43.6003 38.9453 41.0703 39.7417 39.5645 38.8367Z" fill="#A5A5A5"/>
<path d="M36.7039 30.0619C36.763 30.482 36.8914 30.3752 37.2667 30.5866C37.7361 30.8501 38.1964 31.1296 38.6467 31.4246C40.4203 32.6055 42.6242 34.7942 43.1378 36.9786C43.6003 38.9453 41.0703 39.7417 39.5645 38.8367C39.7584 38.791 39.9346 38.7674 40.0155 38.5777C39.9403 38.3385 38.7878 37.5518 38.469 37.2723C38.2253 37.0607 38.0065 36.8221 37.8167 36.5611C36.5634 34.8206 36.3656 32.1272 36.7039 30.0619Z" fill="#898989"/>
<path d="M35.7386 15.7721C40.7444 11.8453 49.1425 12.4396 53.2553 17.4169C53.9645 18.2751 54.3197 19.4345 53.2799 20.1804C52.2752 20.901 50.495 20.7832 49.3067 20.6418C47.5643 20.3654 45.3069 19.4791 43.8723 18.4449C43.1757 18.5408 42.5774 19.0931 41.9231 19.3869C40.1637 20.1698 38.3621 20.7879 36.4077 20.7624C35.2887 20.7477 33.3708 20.4314 33.3944 18.9192C33.4084 18.0196 33.8669 17.4198 34.5078 16.822C34.903 16.446 35.291 16.085 35.7386 15.7721Z" fill="#A5A5A5"/>
<path d="M35.7386 15.7721C35.5829 16.0248 35.5746 16.0832 35.5572 16.3797C35.7329 16.7585 36.0068 16.5118 36.2443 16.5828C38.6015 15.5141 42.1452 16.6885 43.8723 18.4449C43.1757 18.5408 42.5774 19.0931 41.9231 19.3869C40.1637 20.1698 38.3621 20.7879 36.4077 20.7624C35.2887 20.7477 33.3708 20.4314 33.3944 18.9192C33.4084 18.0196 33.8669 17.4198 34.5078 16.822C34.903 16.446 35.291 16.085 35.7386 15.7721Z" fill="#898989"/>
<path d="M35.7386 15.7721C35.5829 16.0248 35.5746 16.0832 35.5572 16.3797C35.7329 16.7585 36.0068 16.5118 36.2443 16.5828C35.8988 16.7335 35.0158 17.2384 34.7708 17.1857C34.6235 17.0856 34.5601 16.9991 34.5078 16.822C34.903 16.446 35.291 16.085 35.7386 15.7721Z" fill="#A5A5A5"/>
<path d="M100.989 18.4186C101.938 18.4098 103.411 18.3607 104.321 18.4793L104.323 33.9506C103.213 33.9313 102.088 33.9349 100.977 33.9298C101.018 28.7867 100.889 23.5486 100.989 18.4186Z" fill="#A5A5A5"/>
</svg>
