<svg width="160" height="48" viewBox="0 0 160 48" fill="none" xmlns="http://www.w3.org/2000/svg">
<g clip-path="url(#clip0_138_67)">
<path d="M84.2746 17.6474C84.3743 17.5484 84.4836 17.4593 84.6202 17.4263C85.6456 17.1786 86.1579 17.4493 86.2029 18.6366C86.1422 20.1162 86.189 21.897 86.1896 23.3937L86.1949 31.5465C86.1239 32.7019 82.3433 32.5786 81.1859 32.6032C80.7542 32.6124 80.2708 32.5587 79.715 32.4545C78.6421 32.2533 77.6017 31.3634 77.0752 30.4143C76.2566 28.8685 76.1653 26.8465 76.5896 25.159C77.132 23.0019 78.955 21.7081 81.1345 21.6603C81.5326 21.6516 82.7881 22.093 83.1314 22.3164C83.1935 22.3569 83.2539 22.416 83.3143 22.4837C83.6686 22.8812 84.038 22.7377 84.0309 22.2053C84.0121 20.7982 83.7666 18.1558 84.2746 17.6474ZM81.4661 30.4574C82.1899 30.3779 82.9494 30.1122 83.3746 29.4933C84.743 27.5022 84.2379 24.042 81.3703 23.9116C79.0423 24.0975 78.4781 25.729 78.6522 27.8289C78.781 29.3805 79.8784 30.4423 81.4661 30.4574Z" fill="#A5A5A5"/>
<path d="M69.4778 21.7057C69.568 21.6762 69.6595 21.6476 69.7539 21.6374C70.2253 21.5863 70.3362 21.7439 70.8022 21.813C73.4366 22.2036 75.0397 24.4142 74.9917 27.0147C74.9615 28.6503 74.8324 29.8007 73.6297 31.0563C72.6125 32.1202 71.5345 32.5383 70.087 32.5762C67.7829 32.6287 66.0772 31.655 65.1347 29.4688C63.9108 26.6925 65.1039 23.0781 68.0526 22.0152C68.485 21.8593 68.9836 21.867 69.4778 21.7057ZM70.3746 30.4256C71.1397 30.2838 71.8159 29.8405 72.2514 29.1952C73.2246 27.7431 72.9429 25.2828 71.4273 24.3178C70.9492 24.0134 70.1781 23.8385 69.5983 23.9427C69.533 23.9545 69.4667 23.9661 69.4009 23.9743C67.3827 24.2253 66.833 26.1113 67.0494 27.9186C67.2604 29.6807 68.669 30.5942 70.3746 30.4256Z" fill="#A5A5A5"/>
<path d="M57.8452 21.7018C57.9334 21.6744 58.0225 21.6485 58.1141 21.6369C58.1791 21.6286 58.2461 21.6224 58.2754 21.6272C59.5865 21.8666 60.7831 22.0473 61.7669 23.044C62.9118 24.2038 63.2024 25.0666 63.3441 26.6056C63.6439 29.859 61.7669 32.5071 58.3879 32.5754C52.2827 32.7393 51.1367 24.2017 56.3643 22.0333C56.75 21.8733 57.3397 21.8583 57.8452 21.7018ZM58.7756 30.4218C62.5352 29.6881 61.5858 23.2243 57.8932 23.9553C57.884 23.9571 57.875 23.959 57.8659 23.9611C55.6488 24.184 55.1563 26.1327 55.391 28.0269C55.6033 29.7412 57.1729 30.597 58.7756 30.4218Z" fill="#A5A5A5"/>
<path d="M117.941 21.7023C118.028 21.6744 118.116 21.6512 118.207 21.643C118.822 21.5877 119.006 21.7939 119.599 21.8406C121.268 21.9717 122.654 23.462 122.728 25.1295C122.801 26.7888 122.713 28.6257 122.752 30.2992C122.759 30.6312 122.764 31.0061 122.753 31.3764C122.737 31.8893 122.395 32.375 121.883 32.4122C121.534 32.4376 121.247 32.3366 120.949 32.047C120.768 31.8714 120.705 31.6187 120.697 31.3668C120.695 31.3008 120.69 31.2368 120.678 31.1784C120.657 31.0782 120.556 30.9403 120.481 31.0097C119.691 31.7408 119.458 32.4083 118.28 32.5338C117.095 32.6565 115.838 32.6405 114.845 31.8943C113.979 31.2441 113.81 30.6685 113.657 29.6332C113.529 25.3763 118.699 26.2802 120.139 26.1231C120.364 26.0984 120.519 25.9144 120.538 25.6879C120.628 24.5599 119.265 23.4309 118.116 23.6729C117.282 23.8487 116.981 23.9093 116.498 24.4229C116.318 24.615 116.23 24.8711 116.151 25.1227C116.09 25.3186 116 25.4798 115.875 25.6334C115.685 25.8667 115.388 25.9831 115.087 25.9868C114.87 25.9895 114.711 25.9715 114.543 25.9172C114.083 25.7679 113.819 25.2685 113.919 24.7945C114.239 23.2651 115.549 22.1167 117.149 21.8724C117.474 21.8229 117.659 21.7932 117.941 21.7023ZM118.585 30.5634C118.653 30.5367 118.725 30.5212 118.796 30.5037C118.946 30.4672 119.095 30.4071 119.241 30.3402C119.484 30.2284 119.685 30.0394 119.822 29.8092C119.965 29.5689 120.086 29.3563 120.19 29.1374C120.494 28.4965 120.026 27.8186 119.317 27.8016C118.698 27.7868 118.045 27.8216 117.561 27.8422C117.032 27.9294 116.503 28.0757 116.176 28.5344C115.978 28.8111 115.898 29.155 115.953 29.4906C116.017 29.8398 116.217 30.1491 116.51 30.3495C116.898 30.6201 117.652 30.7963 118.126 30.7141C118.337 30.6776 118.431 30.6235 118.585 30.5634Z" fill="#A5A5A5"/>
<path d="M102.644 21.7146C102.862 21.6895 103.196 21.7788 103.426 21.804C104.526 21.9244 105.497 22.3913 106.254 23.2053C107.121 24.1362 107.629 25.3393 107.696 26.5995C107.714 26.9297 107.584 27.2552 107.339 27.4773C107.319 27.496 107.298 27.5145 107.276 27.533C107.099 27.6838 106.871 27.7587 106.639 27.7664C106.024 27.7868 105.142 27.7625 104.639 27.7614C103.485 27.7533 102.331 27.7519 101.177 27.7571C100.424 27.7605 99.7714 28.4123 100.114 29.0832C100.627 30.0875 101.741 30.5834 103.011 30.4992C104.823 30.3789 104.555 29.4336 105.501 28.6505C105.692 28.4919 105.942 28.4288 106.191 28.4268L106.763 28.4221C106.967 28.3946 107.324 28.6694 107.349 28.8575C107.424 29.4222 107.019 30.0117 106.741 30.4795C106.134 31.5041 105.136 32.2232 103.98 32.4999C101.124 33.0389 98.5745 31.757 97.815 28.8561C97.7633 28.6605 97.5765 27.2279 97.5882 27.0986C97.6846 26.0377 97.8815 24.8505 98.5021 23.9582C98.8597 23.4387 99.0157 23.2825 99.4452 22.8833C100.497 21.9058 101.338 21.9824 102.644 21.7146ZM102.678 26.0151C103.072 26.0146 103.485 26.0182 103.899 26.0195C104.682 26.0217 105.304 25.2945 104.815 24.6823C104.305 24.0432 103.486 23.6713 102.611 23.6961C101.483 23.8561 100.255 24.4754 99.9958 25.662C99.9681 25.7886 99.9762 25.9607 100.105 25.9737C100.925 26.0563 101.858 26.0195 102.678 26.0151Z" fill="#A5A5A5"/>
<path d="M88.9358 17.7861C89.1033 17.5664 89.3707 17.4494 89.6446 17.4134C90.67 17.2786 91.4245 17.3219 92.4492 17.4274C92.6991 17.4531 92.9352 17.5518 93.1411 17.6957C93.4678 17.924 93.5034 17.9132 93.8045 18.3317C93.9467 18.5294 94.0291 18.7643 94.0478 19.0071L94.066 19.2418L94.0559 26.436C94.0564 27.6078 94.0399 28.8191 94.0841 29.9896C94.0939 30.2442 94.362 30.3754 94.6162 30.3928C95.2213 30.4344 96.1636 30.4123 96.8751 30.4759C97.0604 30.4925 97.2164 30.5456 97.3329 30.6906C97.6059 31.0306 97.6673 31.5726 97.4074 31.9226C97.3556 31.9924 97.2997 32.0576 97.2381 32.115C97.1635 32.1846 97.0906 32.2063 96.9938 32.229C96.4179 32.3637 89.9157 32.3805 89.2392 32.2693C89.2 32.2629 89.16 32.2518 89.1196 32.2372C88.7334 32.0982 88.4798 31.6806 88.4955 31.2703C88.5015 31.114 88.5425 30.9926 88.6453 30.8478C88.8206 30.601 89.1159 30.4713 89.4176 30.4467C89.8712 30.4096 90.2883 30.4104 90.7088 30.4081C91.4127 30.4044 91.9485 29.8217 91.9488 29.1177L91.9514 23.0939C91.9514 22.0264 91.9898 20.7175 91.8972 19.6565C91.8493 19.1096 89.8555 19.3281 89.4628 19.1652C89.3975 19.1381 89.3454 19.1158 89.3011 19.0955C89.0032 18.9594 88.8043 18.6536 88.7774 18.3272C88.7595 18.1103 88.8025 17.9609 88.9358 17.7861Z" fill="#A5A5A5"/>
<path d="M110.063 29.0192C111.134 28.8679 112.069 29.5247 112.115 30.652C112.128 30.9671 112.064 31.1934 111.967 31.4377C111.873 31.6729 111.708 31.8734 111.503 32.0217C111.24 32.2117 111.078 32.3129 110.708 32.4241C110.595 32.4583 110.476 32.4733 110.357 32.4716C110.352 32.4715 110.347 32.4715 110.341 32.4714C109.558 32.4589 108.86 32.1869 108.503 31.438C108.352 31.1208 108.333 30.8817 108.338 30.5932C108.343 30.3651 108.407 30.1408 108.526 29.9461C108.918 29.3027 109.146 29.1443 110.063 29.0192Z" fill="#A5A5A5"/>
<path d="M128.962 17.2511C129.078 17.2051 129.204 17.1418 129.322 17.1791C129.961 17.3799 130.254 17.5275 130.558 17.8705C130.804 18.1472 130.92 18.5146 130.922 18.8844C130.923 18.9653 130.922 19.046 130.92 19.1295C130.916 19.3656 130.837 19.5949 130.694 19.7822C130.358 20.2189 130.115 20.4247 129.672 20.5296C129.479 20.5756 129.277 20.5822 129.079 20.5687C128.833 20.5519 128.673 20.5195 128.468 20.4398C128.211 20.3397 128.002 20.1405 127.844 19.9137C127.636 19.6154 127.508 19.2687 127.514 18.905L127.515 18.8523C127.52 18.5592 127.598 18.269 127.767 18.0293C127.777 18.0143 127.788 17.9994 127.798 17.9847C128.03 17.6634 128.385 17.464 128.758 17.3293C128.823 17.3056 128.89 17.28 128.962 17.2511Z" fill="#A5A5A5"/>
<path d="M86.2028 18.6366C86.2465 18.4305 86.2209 18.361 86.354 18.2511C86.5296 18.4406 86.4461 20.2023 86.445 20.5596L86.4439 24.3596L86.4471 29.4643C86.4477 29.8822 86.5131 31.3966 86.437 31.7073L86.3668 31.7687C86.2284 31.6981 86.2641 31.7097 86.1949 31.5465L86.1895 23.3937C86.189 21.897 86.1422 20.1162 86.2028 18.6366Z" fill="#0091CF" fill-opacity="0.0117647"/>
<path d="M39.5788 11.1359C39.6636 11.0548 39.7722 11 39.8896 11C40.094 11 40.1554 11.2712 40.3544 11.3181C40.4039 11.3298 40.4834 11.3316 40.6144 11.3461C40.6245 11.3473 40.6687 11.4006 40.7266 11.475C40.9532 11.7662 41.0774 12.1315 41.0735 12.5005C41.0421 15.4853 41.0024 27.1593 41.0906 30.4722C41.1049 31.0084 41.4544 31.2047 41.8267 30.8185C42.8588 29.7476 43.1576 27.9224 42.4208 26.6126C42.2674 26.34 42.1273 26.0328 42.1288 25.72C42.131 25.2884 42.1343 24.8497 42.1348 24.4124C42.1358 23.6084 42.8277 23.0687 43.3763 23.6564C43.5463 23.8385 43.7077 24.0302 43.8724 24.2017C45.333 25.7404 45.6895 27.4419 45.5284 29.4992C45.4007 31.129 44.4711 32.6167 43.259 33.6653C41.9444 34.8026 38.9535 36.1846 37.1761 35.969C37.1042 35.9618 37.0374 35.9591 36.9653 35.9607C35.7923 35.9877 34.6122 35.9403 33.4403 35.9673C32.9386 36.0232 32.217 35.9185 31.713 35.791C29.2839 35.1765 27.0216 33.9778 25.7266 31.7485C25.4394 31.2541 25.3717 30.699 25.1681 30.1953C25.0748 29.9645 25 29.7229 25 29.4739V27.774C25 27.5333 25.0489 27.2899 25.1329 27.0644C25.266 26.7068 25.4504 26.1946 25.4531 26.1611C25.4986 25.5965 27.092 23.5214 27.9506 23.0831C28.2167 22.9473 28.4022 23.2199 28.4131 23.5184C28.4347 24.1117 28.4344 25.0718 28.435 25.704C28.4354 26.0364 28.3063 26.3522 28.1361 26.6378C27.2148 28.1846 27.8925 30.2598 29.2715 31.3299C29.3753 31.4104 29.4695 31.2616 29.4713 31.1303C29.4936 29.5514 29.4737 19.1077 29.4738 16.6519C29.4738 16.3754 29.5497 16.103 29.7228 15.8874C29.7645 15.8355 29.8049 15.7898 29.8513 15.7424C30.0398 15.5497 30.2973 15.4422 30.5667 15.4345C30.8898 15.4252 31.2087 15.5407 31.4394 15.7671C31.457 15.7844 31.4745 15.8018 31.4919 15.8193C31.5925 15.9208 31.7592 16.1 31.776 16.2438C31.8514 16.8911 31.8239 17.5974 31.8204 18.253L31.8137 21.298L31.8107 32.3266C31.8107 32.4862 31.9046 32.6312 32.0548 32.685C32.3044 32.7743 32.5664 32.587 32.5701 32.3219C32.5872 31.0997 32.5429 29.608 32.5425 28.4504L32.5444 18.9645C32.5444 18.7004 32.6163 18.4379 32.7734 18.2256C33.1559 17.7086 33.4532 17.5695 34.088 17.7407C34.3226 17.804 34.515 17.9704 34.6622 18.1638C34.8373 18.3938 34.951 18.6632 34.951 18.9522L34.9505 26.6162C34.9502 28.6585 34.9758 30.7785 34.9408 32.8244C34.9374 33.0205 35.0844 33.1865 35.2805 33.1833C35.498 33.1797 35.6625 32.9841 35.6464 32.7671C35.5718 31.7598 35.6029 30.5647 35.603 29.587L35.6056 24.0842L35.6021 19.275C35.5999 18.3885 35.5799 17.4618 35.6261 16.5784C35.6475 16.1681 35.8021 15.9414 36.0417 15.7188C36.2199 15.5532 36.4503 15.4491 36.6932 15.4367C36.778 15.4323 36.8594 15.432 36.9438 15.4346C37.1907 15.4421 37.4173 15.5194 37.582 15.7036C37.8355 15.9871 38.0184 16.3613 38.0238 16.7416C38.0701 20.0045 37.8796 32.4465 38.0735 32.7581C38.0851 32.7769 38.0802 32.7719 38.104 32.7776C38.1605 32.791 38.223 32.7865 38.2879 32.7701C38.6842 32.6701 38.8763 32.2286 38.8783 31.8198C38.8801 31.4282 38.87 30.9917 38.8695 30.7406L38.8667 27.4594L38.8658 16.3166L38.8524 13.4682C38.8479 12.6424 38.7401 12.3109 39.0357 11.65C39.1092 11.4858 39.2475 11.3647 39.4013 11.2716C39.4645 11.2333 39.5194 11.1927 39.5788 11.1359Z" fill="#A5A5A5"/>
<path d="M125.382 22.4722C125.497 22.3604 125.639 22.28 125.797 22.2504C126.756 22.0701 127.966 22.1081 128.95 22.2424C129.171 22.2726 129.38 22.3632 129.554 22.5038C130.201 23.0278 130.1 23.0941 130.374 23.5685C130.507 23.7979 130.599 24.0513 130.605 24.3163C130.643 25.823 130.623 27.5026 130.606 29.0703C130.598 29.8022 131.17 30.3976 131.902 30.4018C132.316 30.4042 132.729 30.4107 133.146 30.4463C133.3 30.4595 133.453 30.5395 133.572 30.6383C133.806 30.8332 134 31.0845 134 31.3893C134 31.6462 133.863 31.8725 133.674 32.0473C133.575 32.1399 133.449 32.2136 133.315 32.2354C132.132 32.4267 130.212 32.2648 129.047 32.3091C128.376 32.3346 126.588 32.3734 125.665 32.2488C125.409 32.2141 125.181 32.0598 125.039 31.844C124.836 31.5358 124.821 31.1305 125.044 30.8366C125.055 30.8217 125.067 30.8069 125.079 30.7922C125.255 30.5747 125.52 30.4513 125.799 30.4302C126.098 30.4077 126.444 30.399 126.795 30.3952C127.587 30.3864 128.199 29.7095 128.198 28.9181C128.198 28.6325 128.2 28.3498 128.2 28.0795C128.209 27.0819 128.208 26.0842 128.197 25.0867C128.191 24.5895 127.905 24.1319 127.41 24.0817C126.976 24.0377 126.489 24.0507 126.049 24.0179C125.839 24.0023 125.648 23.9011 125.494 23.7567C125.465 23.7292 125.436 23.7024 125.406 23.6758C125.226 23.5139 125.111 23.2881 125.114 23.0458C125.117 22.8431 125.2 22.6498 125.345 22.5083L125.382 22.4722Z" fill="#A5A5A5"/>
<path d="M33.4403 35.9674C34.6122 35.9403 35.7923 35.9877 36.9653 35.9607C37.0374 35.9591 37.1042 35.9619 37.1761 35.9691C37.2974 36.1531 37.2878 36.0869 37.2893 36.2983H33.2997C33.3167 36.2048 33.3963 36.0578 33.4403 35.9674Z" fill="#0091CF" fill-opacity="0.670588"/>
</g>
<defs>
<clipPath id="clip0_138_67">
<rect width="109" height="25.2983" fill="white" transform="translate(25 11)"/>
</clipPath>
</defs>
</svg>
