<svg width="160" height="48" viewBox="0 0 160 48" fill="none" xmlns="http://www.w3.org/2000/svg">
<g clip-path="url(#clip0_199_881)">
<path d="M7.5545 16.058C11.3634 15.9828 15.2104 16.0944 19.0238 16.0485C20.2099 16.0343 21.4516 16.0276 22.6358 16.0761C24.988 18.441 27.7431 21.2012 30.1545 23.4786C27.7865 25.8628 25.0594 28.5951 22.6134 30.8821C17.7251 30.9816 12.4933 30.8936 7.5797 30.8923C9.88052 28.4328 12.7368 26.0169 15.0643 23.4745C12.5913 21.0688 10.0777 18.3845 7.5545 16.058Z" fill="#A5A5A5"/>
<path d="M7.5545 16.058C11.3634 15.9828 15.2104 16.0944 19.0238 16.0485C20.2099 16.0343 21.4516 16.0276 22.6358 16.0761C20.1066 18.5264 17.5923 20.992 15.093 23.4727L15.0643 23.4745C12.5913 21.0688 10.0777 18.3845 7.5545 16.058Z" fill="#9C9C9C"/>
<path d="M15.0644 23.4745L15.0931 23.4727C16.2724 24.7452 17.726 26.0767 18.9763 27.2952C20.1898 28.478 21.3943 29.717 22.6135 30.8821C17.7252 30.9816 12.4933 30.8936 7.57977 30.8923C9.8806 28.4328 12.7369 26.0169 15.0644 23.4745Z" fill="#6C6C6C"/>
<path d="M145.829 14.6702L145.818 27.9173H143.884L143.863 26.805C142.251 28.2152 140.458 28.6748 138.533 27.4632C138.316 27.2808 138.063 27.0784 137.87 26.8724C136.209 25.0977 136.172 21.8426 137.699 19.9866C138.364 19.1655 139.333 18.6482 140.387 18.553C141.797 18.4209 142.669 18.8989 143.708 19.761C143.749 18.515 143.611 15.8663 143.749 14.7835C143.968 14.6284 144.073 14.6759 144.372 14.6663L145.829 14.6702ZM141.809 26.2103C144.887 25.3654 144.423 20.0498 140.765 20.4251C137.426 21.4304 138.283 26.7721 141.809 26.2103Z" fill="#A5A5A5"/>
<path d="M102.976 14.6732C102.961 16.3794 102.968 18.0862 102.998 19.7923C103.992 18.9386 104.758 18.4768 106.115 18.5433C110.371 18.7523 111.365 24.6828 108.525 27.2054C107.478 28.0506 106.233 28.303 104.917 28.0257C104.047 27.8423 103.485 27.3603 102.823 26.8148L102.765 27.9173L100.882 27.9183V14.6868L101.743 14.6663L102.976 14.6732ZM106.539 20.6487C105.919 20.3579 105.562 20.3899 104.9 20.4329C101.578 21.606 102.574 26.8745 106.124 26.1829C106.595 26.0229 106.958 25.8429 107.294 25.4691C108.489 24.1396 108.259 21.4553 106.539 20.6487Z" fill="#A5A5A5"/>
<path d="M73.175 27.9152L71.2834 27.9172L71.2531 26.7971C71.0283 26.9869 70.801 27.2132 70.5617 27.383C69.1293 28.3999 67.3426 28.3439 65.9026 27.465C63.6851 25.8241 63.3764 22.3363 64.926 20.1564C65.5114 19.3231 66.4097 18.7617 67.4162 18.6008C69.0897 18.3236 69.8386 18.8389 71.0774 19.7219L71.0783 14.6711L72.1252 14.6672H73.1799L73.175 27.9152ZM68.1262 20.423C64.7295 21.588 65.7107 26.6993 69.1115 26.2189C69.8403 25.9949 70.4961 25.672 70.8137 24.9465C71.7872 22.7231 70.8066 20.1759 68.1262 20.423Z" fill="#A5A5A5"/>
<path d="M42.533 18.5624C48.2408 17.98 48.8007 27.4883 43.4051 28.1161C41.9686 28.283 41.0728 27.7748 39.9988 26.9081L39.9881 28.8153L39.9851 31.5936L37.8933 31.5946C37.8066 27.4117 37.8893 22.9302 37.8885 18.7225L39.8523 18.7508C39.8577 19.0918 39.8989 19.5197 39.9226 19.8671C40.7622 19.0465 41.3501 18.6683 42.533 18.5624ZM42.3787 20.3661C38.7488 20.8062 39.3802 26.4508 42.5974 26.2577C46.084 25.7964 45.8551 20.4598 42.3787 20.3661Z" fill="#A5A5A5"/>
<path d="M115.117 18.58C117.759 18.2883 120.135 20.2001 120.411 22.8408C120.687 25.4818 118.758 27.8426 116.111 28.1015C113.489 28.3582 111.15 26.4519 110.877 23.8339C110.604 21.2161 112.498 18.8693 115.117 18.58ZM116.23 26.1914C119.379 25.3471 118.883 20.0913 115.187 20.4248C111.598 21.4621 112.665 26.8334 116.23 26.1914Z" fill="#A5A5A5"/>
<path d="M57.8915 18.573C60.5308 18.3091 62.8828 20.2362 63.1396 22.8728C63.3961 25.5094 61.4599 27.8533 58.8193 28.1023C56.1893 28.3499 53.8543 26.4253 53.5986 23.7995C53.343 21.1736 55.2629 18.8358 57.8915 18.573ZM59.5849 20.7038C58.966 20.3714 58.4708 20.3631 57.7861 20.4284C54.3388 21.7167 55.4471 26.8648 59.0117 26.1853C60.7296 25.6881 61.3451 23.9187 60.8691 22.3034C60.6719 21.6203 60.2097 21.0443 59.5849 20.7038Z" fill="#A5A5A5"/>
<path d="M124.889 18.5665C125.818 18.4473 127.195 18.6159 128.003 19.1651C129.774 20.3698 129.263 22.8337 129.331 24.7237C129.38 26.0963 129.319 26.5345 129.586 27.9132L127.604 27.919C127.589 27.6619 127.598 27.2105 127.463 27.0147C127.219 27.0397 126.716 27.5596 126.387 27.7081C125.361 28.1708 124.002 28.2904 122.934 27.9239C122.109 27.6409 121.712 27.1984 121.347 26.4532C120.25 21.5006 126.612 22.8244 127.345 21.8956C127.682 20.698 125.503 19.9483 124.592 20.3927C123.757 20.7998 123.756 20.8476 123.361 21.629L121.351 21.6241C121.872 19.6073 122.746 18.7553 124.889 18.5665ZM127.029 23.6446C125.971 23.8057 121.861 24.1049 123.502 26.0851C123.552 26.1457 123.688 26.246 123.757 26.294C123.772 26.3042 123.786 26.3145 123.801 26.3243C125.279 26.7748 126.734 26.3447 127.252 24.7628C127.349 24.4671 127.405 23.9696 127.271 23.6856C127.175 23.6467 127.128 23.6164 127.029 23.6446Z" fill="#A5A5A5"/>
<path d="M80.7891 18.7231C81.495 18.7291 82.201 18.7397 82.907 18.7549L82.9117 21.7022V27.9114C82.2762 27.9037 81.5217 28.0783 81.0771 27.8243C80.8666 27.5058 80.9299 27.3997 80.908 26.9712C78.2582 29.2082 74.71 28.1383 74.8067 24.4257C74.8493 22.7941 74.6301 20.2798 74.8473 18.7971L75.0182 18.7313L76.8735 18.7371C76.8987 20.7386 76.7489 22.8608 76.9651 24.8315C77.2694 27.0342 80.5214 26.6418 80.7139 24.6724C80.9026 22.7497 80.8008 20.654 80.7891 18.7231Z" fill="#A5A5A5"/>
<path d="M88.5642 18.567C88.5893 18.5619 88.6143 18.5577 88.6394 18.5543C90.787 18.271 92.869 19.9154 93.175 22.0544L91.1001 22.0624C90.8019 21.4531 90.4661 20.8649 89.8204 20.5921C88.6323 20.0901 87.2384 20.5896 86.7351 21.7901C86.1356 23.0624 86.3845 25.4864 87.8896 26.0725C89.2436 26.6003 90.4286 26.0182 90.9944 24.7394C91.2347 24.519 92.7719 24.61 93.2157 24.6148C92.7469 26.6451 91.3928 27.94 89.2874 28.1084C83.1778 28.5973 82.5047 19.0539 88.5642 18.567Z" fill="#A5A5A5"/>
<path d="M95.3462 16.3406L97.4124 16.3429C97.4062 17.1325 97.4062 17.9222 97.414 18.7117L99.1038 18.7402L99.1093 20.4087L97.4367 20.4162C97.3592 21.8026 97.3866 23.2489 97.3929 24.6387C97.3991 26.0794 97.8296 26.1612 99.0882 26.1119L99.085 27.7489L99.0232 27.8506C98.7821 28.0107 98.3344 27.9403 98.048 27.9695C96.9272 28.0837 95.5724 27.4033 95.437 26.1626C95.2366 24.3272 95.3407 22.2958 95.343 20.4172L93.9436 20.4089L93.9593 18.736L95.3297 18.7096L95.3462 16.3406Z" fill="#A5A5A5"/>
<path d="M135.773 18.6419L135.928 18.6648C136.158 18.9945 136.062 20.1503 136.053 20.6168C133.696 20.566 133.204 21.6385 133.23 23.8161C133.246 25.1604 133.249 26.57 133.235 27.9173C132.741 27.909 131.641 28.0468 131.216 27.8227C131.157 27.7911 131.155 27.565 131.144 27.467C131.141 24.5951 131.098 21.5902 131.162 18.73C131.803 18.7207 132.434 18.7431 133.074 18.7622L133.123 19.7783C134.022 18.9738 134.592 18.7396 135.773 18.6419Z" fill="#A5A5A5"/>
<path d="M53.0744 18.6452C53.163 18.6341 53.2293 18.6734 53.3114 18.7096C53.4564 19.0067 53.3907 20.2203 53.3797 20.6253C53.3187 20.6238 53.2577 20.6228 53.1968 20.6221C51.0136 20.6001 50.5296 21.7201 50.5255 23.7219C50.5225 25.1137 50.5357 26.5218 50.5387 27.9141C50.0522 27.9078 48.8977 28.0573 48.5023 27.809C48.4652 27.7856 48.4587 27.5403 48.4524 27.467L48.456 18.7347L50.3753 18.7311L50.3964 19.826C51.4364 18.9752 51.7423 18.7404 53.0744 18.6452Z" fill="#A5A5A5"/>
</g>
<defs>
<clipPath id="clip0_199_881">
<rect width="160" height="48" fill="white"/>
</clipPath>
</defs>
</svg>
