<svg width="160" height="48" viewBox="0 0 160 48" fill="none" xmlns="http://www.w3.org/2000/svg">
<path d="M75.6833 16.1159C76.3261 16.1233 76.7862 16.1348 77.4206 16.2556C79.2239 16.5987 80.8142 17.651 81.8356 19.1755C84.1794 22.6242 83.5632 28.2056 79.9704 30.5603C78.2991 31.6555 76.2256 31.9452 74.277 31.5798C72.5561 31.257 71.405 30.3686 70.4469 28.9489C70.4816 30.1982 70.4577 31.5558 70.4577 32.8132L70.4538 37.9763L67.7604 37.9753C67.6897 32.9008 67.8002 27.7961 67.7546 22.7185C67.7359 20.6489 67.7274 18.5282 67.7673 16.4597L70.4548 16.4665C70.4605 17.2822 70.4595 18.0981 70.4518 18.9138C70.6205 18.6663 70.8067 18.4311 71.0094 18.2107C72.3561 16.7439 73.7393 16.1966 75.6833 16.1159ZM76.3239 29.3142C82.5038 28.1967 81.6591 17.7726 74.818 18.5017C68.3784 19.3825 69.363 30.3464 76.278 29.321L76.3239 29.3142Z" fill="#A5A5A5"/>
<path d="M101.37 16.0975C105.688 16.012 109.26 19.4376 109.353 23.7538C109.446 28.0698 106.025 31.6458 101.707 31.746C97.3789 31.8462 93.7906 28.4161 93.6979 24.0897C93.6049 19.7636 97.0413 16.1834 101.37 16.0975ZM104.474 19.368C103.483 18.629 102.308 18.3716 101.098 18.451C97.5995 18.8942 96.2107 21.826 96.6832 25.076C97.1126 28.0301 99.1611 29.526 102.061 29.3836C103.418 29.1847 104.522 28.715 105.359 27.5809C107.043 25.2964 106.848 21.1378 104.474 19.368Z" fill="#A5A5A5"/>
<path d="M50.7384 8.04179L50.8518 8C51.7689 9.86072 55.3782 17.184 57.1702 17.7625C57.8034 17.9669 58.7453 17.4769 59.294 17.1821C61.3331 16.087 63.2794 14.4874 65.0018 12.9501L65.0361 13.1069C63.3877 14.8382 60.8565 18.0327 60.573 20.4646C60.4143 21.8258 63.5568 22.5719 64.576 22.8519C62.536 22.7002 59.1018 22.6841 58.956 25.4473C58.8856 26.7825 59.3446 28.3667 59.8953 29.5695C59.1785 28.8307 57.758 27.4216 56.6111 27.4326C55.8016 27.4403 54.5976 28.4343 53.9588 28.9951C50.3968 32.1222 47.331 35.8151 44.2758 39.4251C44.1135 39.6168 43.9597 39.8183 43.7933 40L43.726 39.8548C46.245 36.5346 51.5169 28.8122 52.1649 24.9753C52.2687 24.3605 52.3242 23.5959 51.9368 23.0655C50.7878 21.4926 38.4566 19.797 36 19.4406C36.1274 19.3544 36.3035 19.3587 36.4648 19.3438C37.4594 19.3861 38.4604 19.4993 39.4547 19.5662C42.3859 19.7635 50.041 20.2682 52.4438 19.2361C52.8195 19.0747 53.1075 18.8479 53.2585 18.4601C54.0996 16.2992 51.6428 10.0969 50.7384 8.04179Z" fill="#A5A5A5"/>
<path d="M120.546 16.4568C121.507 16.4686 122.467 16.4683 123.427 16.4559C121.756 18.9568 119.918 21.425 118.233 23.9286C118.731 24.561 119.445 25.6594 119.923 26.344L123.397 31.3363C123.184 31.3938 120.889 31.362 120.516 31.3595C120.155 30.7478 119.522 29.8839 119.108 29.2819L116.399 25.3357L112.281 31.3636L109.376 31.3597L114.568 23.9223C112.907 21.5608 110.934 18.8532 109.378 16.4569C110.327 16.4742 111.329 16.4609 112.281 16.4627C113.578 18.4799 115.091 20.4913 116.394 22.5229C117.728 20.5035 119.178 18.4658 120.546 16.4568Z" fill="#A5A5A5"/>
<path d="M91.354 16.3677C92.1112 16.3299 93.011 16.3523 93.7788 16.3536C93.788 17.1895 93.7794 18.0358 93.7783 18.8726C92.4524 18.8862 90.2857 18.599 89.3279 19.635C87.7931 21.2942 88.0386 24.2635 88.0391 26.3899L88.0401 31.3612L85.5256 31.3628C85.4518 31.3706 85.4243 31.3514 85.3566 31.3226C85.3158 30.7402 85.3367 29.9734 85.3367 29.3792L85.3357 26.0962L85.3449 16.4602L88.0401 16.4668C88.0462 17.2485 88.0426 18.0302 88.0299 18.8117C88.8115 17.3001 89.6069 16.501 91.354 16.3677Z" fill="#A5A5A5"/>
</svg>
