<svg width="160" height="48" viewBox="0 0 160 48" fill="none" xmlns="http://www.w3.org/2000/svg">
<path d="M93.861 16.4406C93.8774 16.9564 93.8762 17.4959 93.8707 18.0129C93.8285 21.8184 93.942 25.6535 93.8522 29.4562L92.5748 29.4553L92.1266 28.7971C90.9182 29.4478 89.6713 29.728 88.3082 29.5275C88.0216 29.4904 87.7418 29.432 87.4762 29.3137C86.9365 29.073 86.6233 28.6636 86.4186 28.1262C86.0178 27.0722 85.9987 22.2736 86.4596 21.2531C86.7065 20.7054 87.1395 20.2952 87.7028 20.0852C89.0535 19.5819 90.6125 19.9816 91.8678 20.5578C91.8608 19.8661 91.804 16.9221 91.9118 16.4484C92.5266 16.4275 93.2383 16.4413 93.861 16.4406ZM89.0739 21.7561C88.8909 21.8015 88.4299 21.9009 88.3619 22.1125C88.0706 23.0231 88.1984 24.0697 88.1657 25.0129C88.0805 27.4654 88.2196 28.2399 90.9957 27.5617C91.2692 27.4934 91.5883 27.4427 91.7868 27.2492C91.9438 26.9179 91.8621 22.8813 91.8629 22.2033C90.7514 21.8719 90.2652 21.6993 89.0739 21.7561Z" fill="#A5A5A5"/>
<path d="M69.8264 16.4384C69.8992 20.6924 69.8384 25.1911 69.8264 29.4579L68.5276 29.4589L68.0979 28.7968C66.637 29.5206 65.6988 29.716 64.0969 29.5145C62.8426 29.2231 62.2544 28.4445 62.1653 27.1737C61.8469 22.6283 61.6755 17.8769 67.8469 20.5585C67.8402 19.4901 67.7821 17.4204 67.8753 16.4403L69.8264 16.4384ZM65.1008 21.7557C63.8302 21.9542 64.1131 23.5892 64.0823 24.5927C64.0552 25.4766 64.0596 26.7184 64.4055 27.5253C65.1901 27.8127 65.6752 27.8054 66.51 27.6581C67.084 27.5455 67.296 27.4824 67.8401 27.2675L67.8421 22.2118C66.8152 21.8924 66.2082 21.6943 65.1008 21.7557Z" fill="#A5A5A5"/>
<path d="M99.7211 17.4644C100.382 17.442 101.045 17.4467 101.705 17.4784C102.631 20.012 104.24 22.7147 105.085 25.3529L108.516 17.4644C109.106 17.4322 109.945 17.4556 110.553 17.4554C110.704 21.0764 110.599 25.7751 110.572 29.4513L108.645 29.4557C108.613 27.6389 108.639 25.7411 108.638 23.9178C108.643 22.8884 108.704 21.8554 108.756 20.827C108.057 23.0235 106.935 25.4818 105.939 27.5811L104.217 27.5847C103.141 25.1879 102.413 23.3833 101.448 20.9884C101.548 23.8088 101.578 26.6311 101.538 29.4529C100.915 29.4672 100.227 29.4525 99.5977 29.4504C99.5953 26.2252 99.5641 21.0109 99.6242 17.5936C99.6617 17.5435 99.6938 17.5003 99.7211 17.4644Z" fill="#A5A5A5"/>
<path d="M30.9632 17.3154C31.0607 17.3088 31.1584 17.3041 31.2561 17.3014C34.4181 17.213 35.5138 18.1485 35.5882 21.2312C34.9792 21.2681 34.2087 21.2419 33.5877 21.2374C33.5841 21.0275 33.5773 20.8178 33.5673 20.6082C33.4808 18.9294 32.2038 19.1836 30.8688 19.1857C29.5781 19.1877 29.257 19.8498 29.3603 21.0255C29.4102 21.5921 29.5877 21.8253 30.1255 22.0579C32.1051 22.8698 35.4042 22.3813 35.6131 25.2696C35.8516 28.5663 34.9193 29.3208 31.8161 29.6051C31.7099 29.6119 31.6034 29.6154 31.497 29.6154C28.4078 29.6032 27.232 28.7991 27.2515 25.6657C27.8772 25.6378 28.5927 25.6571 29.2252 25.6596C29.2412 27.572 29.8674 27.8649 31.7622 27.7738C32.0492 27.7644 33.2462 27.5995 33.3749 27.3075C35.4124 22.6856 27.4774 25.7409 27.3441 21.3993C27.2489 18.2948 28.2266 17.5527 30.9632 17.3154Z" fill="#A5A5A5"/>
<path d="M17.2148 21.1283C17.789 21.0736 20.6909 20.9924 21.0798 21.2526C21.2197 21.8451 19.4632 27.1557 19.1076 27.983C18.1125 27.9788 16.627 27.89 15.7433 28.2483C14.2884 28.8384 14.0846 30.3908 13.5481 31.6606C12.8931 31.7262 11.6009 31.6893 10.8984 31.6888C9.73586 31.6798 8.48243 31.7648 7.32304 31.6514C7.14056 31.6336 7.1328 31.5814 7.02012 31.4503C7.00104 31.3649 6.99211 31.2652 7.01218 31.1792C7.11905 30.7216 7.33139 30.2381 7.45982 29.7736C7.58847 29.3083 7.72605 28.5719 8.08711 28.2297C8.88657 27.4722 12.6694 28.5355 14.282 27.4254C16.1017 26.1728 15.9802 21.8362 17.2148 21.1283Z" fill="#A5A5A5"/>
<path d="M46.8356 19.8861C48.5744 19.7024 50.6075 20.1493 50.9635 22.1273C51.1433 23.1268 51.084 24.1697 51.0797 25.183L51.0651 29.4486L49.7389 29.4584C49.6115 29.2631 49.4668 29.0001 49.3454 28.7943C47.5627 29.8773 44.26 30.2342 43.4518 27.7592C42.8742 23.4665 45.9648 24.0474 49.1003 24.0648C49.1045 23.5964 49.1516 22.5315 48.8522 22.1791C48.2775 21.503 46.7365 21.525 46.0788 22.0765C45.6958 22.3979 45.7098 22.7501 45.6686 23.1937C44.9819 23.201 44.3823 23.2023 43.695 23.1674C43.7167 20.8892 44.6925 20.1541 46.8356 19.8861ZM46.4889 25.599C46.0797 25.6222 45.8674 25.6075 45.569 25.9252C45.1267 26.3962 45.1723 27.1436 45.6588 27.5619C46.2692 28.0863 47.291 27.8934 48.0133 27.7777C48.3347 27.6706 48.8029 27.5306 49.1061 27.4096L49.1042 25.5961L46.4889 25.599Z" fill="#A5A5A5"/>
<path d="M116.458 19.8657C120.414 19.9396 120.292 21.9707 120.219 25.2398C118.446 25.3177 116.19 25.2515 114.381 25.2505C114.376 25.7934 114.32 27.0705 114.712 27.395C115.42 27.9794 117.19 28.0691 117.886 27.4038C118.252 27.054 118.211 26.6907 118.228 26.2583L119.383 26.2427L120.22 26.2788C120.102 28.4162 119.506 29.3314 117.345 29.5474C113.013 29.8815 112.25 28.5323 112.435 24.521C112.566 21.6603 112.227 20.2946 115.704 19.8892C115.955 19.8704 116.207 19.8629 116.458 19.8657ZM117.861 22.0435C117.301 21.5279 116.01 21.7232 115.292 21.7564C114.297 22.1919 114.402 22.699 114.37 23.7036L117.305 23.7017L118.223 23.69C118.224 23.1374 118.299 22.446 117.861 22.0435Z" fill="#A5A5A5"/>
<path d="M75.327 19.8642C79.2296 19.8742 78.9973 22.0629 78.9911 25.1493L78.9803 29.455L77.6825 29.4579C77.5595 29.2426 77.3795 29.0025 77.2342 28.7968C75.9379 29.6405 73.8483 29.9412 72.4325 29.1659C71.7372 28.7851 71.5268 28.2409 71.3426 27.5194C70.9194 23.4668 74.089 24.0515 77.0184 24.0624C77.0204 23.6072 77.0678 22.5265 76.787 22.1952C76.136 21.4281 74.5279 21.6684 73.8036 22.1435C73.7111 22.5026 73.6818 22.8122 73.6395 23.1786C72.954 23.2049 72.3251 23.1934 71.6405 23.1796C71.7669 20.8742 72.4794 20.158 74.7704 19.8896C74.9554 19.8735 75.1414 19.8647 75.327 19.8642ZM74.4305 25.5995C74.0978 25.6196 73.6895 25.6405 73.5145 25.9335C72.3978 27.8034 74.3507 27.9565 75.4862 27.8466C75.5803 27.8375 75.6744 27.8274 75.7684 27.8173C76.1684 27.6964 76.615 27.5721 77.0067 27.4384L77.0194 25.5985L74.4305 25.5995Z" fill="#A5A5A5"/>
<path d="M16.532 15.2578C17.9079 15.2462 21.3213 15.1988 22.8671 15.2919C22.9309 15.3535 22.9859 15.4065 23.0318 15.4509C23.1127 15.6624 22.4048 18.939 21.4028 18.9267C15.5681 18.8553 15.4243 18.4344 13.7662 23.9402C13.6859 24.1983 13.3276 25.3836 13.23 25.4916C12.7649 26.0063 9.46102 25.8921 8.99828 25.5795C8.86524 25.2682 10.7133 19.6602 10.9758 18.9453C12.4758 18.8234 13.9834 19.2689 15.2152 18.0778C16.0802 17.2413 16.0382 16.2518 16.532 15.2578Z" fill="#A5A5A5"/>
<path d="M150.124 19.8877C151.2 19.7518 152.852 19.9362 153.657 20.7601C154.369 21.4891 154.359 22.2872 154.353 23.2306L152.424 23.2378C152.406 21.5209 151.738 21.745 150.183 21.7009C149.713 21.6876 148.91 22.0969 149.058 22.6467C149.478 24.2131 152.544 23.7385 153.658 24.7985C154.167 25.2845 154.356 25.5783 154.441 26.2558C154.677 28.8957 153.297 29.3687 151.112 29.5993C150.104 29.7155 148.35 29.4779 147.622 28.701C146.924 27.9567 146.934 27.201 146.947 26.2594C147.58 26.2355 148.273 26.2527 148.91 26.2557C148.917 26.7257 148.834 27.1462 149.234 27.4754C149.991 28.0978 151.737 27.9637 152.429 27.2898C152.543 27.1788 152.495 26.6389 152.481 26.4749C152.066 25.6531 148.898 25.4759 147.931 24.6399C146.58 23.4721 146.739 21.3409 148.244 20.3839C148.791 20.036 149.466 19.9629 150.124 19.8877Z" fill="#A5A5A5"/>
<path d="M57.1496 19.8853C57.3047 19.873 57.4602 19.8667 57.6158 19.8663C60.3162 19.8767 60.5377 21.6306 60.5304 23.8547C60.5244 25.7162 60.5517 27.5857 60.5159 29.4503C59.8946 29.4691 59.1807 29.4531 58.5529 29.4524C58.4486 27.2739 58.6554 25.0287 58.5004 22.8452C58.3972 21.392 56.9482 21.7046 55.9407 21.8714L54.8307 22.2029L54.8291 29.4561C54.1588 29.4637 53.4884 29.459 52.8183 29.4418L52.8238 20.0574C53.2278 20.0292 53.7798 20.0435 54.1957 20.0427C54.281 20.2247 54.3576 20.3552 54.4608 20.5275C54.7143 20.6519 55.1141 20.4336 55.4035 20.3211C56.0291 20.078 56.4801 19.9665 57.1496 19.8853Z" fill="#A5A5A5"/>
<path d="M141.464 19.8907C141.548 19.8815 141.631 19.8747 141.715 19.8704C144.595 19.7237 145.807 20.6272 145.94 23.4685L143.915 23.468C143.908 22.444 143.76 21.8746 142.619 21.7539C139.81 21.4573 140.223 22.8574 140.191 25.0104C140.206 25.5154 140.136 26.9571 140.473 27.3418C140.902 27.8306 142.788 27.9321 143.345 27.5312C143.88 27.1469 143.884 26.797 143.937 26.2523L143.952 26.0901C144.228 25.8651 145.53 25.9741 145.945 25.9884C145.918 28.0897 145.288 29.3332 143.041 29.5496C140.133 29.8295 138.047 29.2136 138.178 25.8801C138.304 22.6958 137.434 20.3551 141.464 19.8907Z" fill="#A5A5A5"/>
<path d="M122.631 17.4603C123.284 17.4426 123.959 17.4579 124.613 17.4636L124.616 20.0406L126.959 20.041L126.952 21.7433L124.617 21.7421C124.615 22.7231 124.402 26.6259 124.93 27.4893C125.145 27.8386 126.467 27.7789 126.962 27.7757L126.979 28.6825C126.983 28.9907 127.026 29.2697 126.845 29.4704C125.691 29.8976 122.932 29.3181 122.747 27.7488C122.515 25.7793 122.605 23.7335 122.613 21.7447L121.164 21.7414L121.152 20.5835C121.527 20.4878 122.213 20.3986 122.616 20.3341C122.609 19.3865 122.59 18.4041 122.631 17.4603Z" fill="#A5A5A5"/>
<path d="M38.013 17.4603C38.6259 17.4435 39.3137 17.457 39.9323 17.4571L39.9352 20.0405L42.3189 20.0411C42.3429 20.5676 42.3261 21.2032 42.3259 21.7382L39.9359 21.7415L39.9273 24.8088C39.9235 27.3915 39.6395 27.7911 42.3412 27.7777L42.3531 28.6496C42.357 28.7831 42.3895 29.3095 42.3027 29.3975C42.1353 29.5673 41.7459 29.588 41.5207 29.5886C40.5258 29.5915 39.305 29.416 38.569 28.6787C37.6278 27.7359 37.9377 23.223 37.9438 21.7438L36.5552 21.7431L36.5564 20.555C37.0202 20.4836 37.4829 20.4053 37.9443 20.3198C37.9369 19.7831 37.8799 17.8972 38.013 17.4603Z" fill="#A5A5A5"/>
<path d="M84.843 19.8797L85.6609 19.8658C85.6836 20.4458 85.6695 21.1511 85.6719 21.7403C84.5648 21.7388 83.975 21.7514 82.9836 22.2921L82.9758 29.4472C82.3984 29.4692 81.693 29.4549 81.1062 29.4571C81.0898 29.4492 81.0773 29.4439 81.0648 29.4298C80.8398 29.1645 80.9516 20.9606 80.9773 20.0584C81.375 20.0294 81.8914 20.0427 82.2992 20.0427L82.7656 20.7781C83.5641 20.1773 83.8656 20.0438 84.843 19.8797Z" fill="#A5A5A5"/>
<path d="M132.428 19.8826C132.674 19.8618 133.055 19.8058 133.157 20.0499C133.317 20.4375 133.221 21.3134 133.213 21.7377C132.063 21.743 131.546 21.7384 130.514 22.2967C130.524 24.6841 130.52 27.0716 130.5 29.459L128.616 29.458C128.44 29.2016 128.516 21.0721 128.517 20.0484C128.934 20.0315 129.41 20.0434 129.831 20.0443C129.983 20.2543 130.163 20.5588 130.305 20.7837C131.109 20.1535 131.42 20.0366 132.428 19.8826Z" fill="#A5A5A5"/>
<path d="M134.548 20.0493C135.194 20.0249 135.898 20.0421 136.548 20.0452C136.551 23.1085 136.613 26.411 136.531 29.4551L134.54 29.4563C134.464 26.6863 134.471 22.8114 134.548 20.0493Z" fill="#A5A5A5"/>
<path d="M134.539 16.5887C135.208 16.5799 135.877 16.584 136.546 16.601C136.566 17.2862 136.545 18.081 136.545 18.7749C135.916 18.8117 135.173 18.7882 134.536 18.7836C134.524 18.0641 134.537 17.311 134.539 16.5887Z" fill="#A5A5A5"/>
</svg>
